<?xml version="1.0" standalone="no"?>
<!DOCTYPE svg PUBLIC "-//W3C//DTD SVG 20010904//EN"
 "http://www.w3.org/TR/2001/REC-SVG-20010904/DTD/svg10.dtd">
<svg version="1.0" xmlns="http://www.w3.org/2000/svg"
 width="300.000000pt" height="298.000000pt" viewBox="0 0 300.000000 298.000000"
 preserveAspectRatio="xMidYMid meet">
<metadata>
Created by potrace 1.10, written by Peter Selinger 2001-2011
</metadata>
<g transform="translate(0.000000,298.000000) scale(0.050000,-0.050000)"
fill="#000000" stroke="none">
<path d="M2190 5948 c-660 -49 -1030 -166 -1261 -397 -432 -431 -368 -1376
120 -1806 l88 -77 -183 -196 c-181 -193 -185 -195 -244 -173 -78 31 -340 8
-373 -33 -35 -42 11 -65 132 -66 202 0 350 -136 351 -321 1 -87 32 -142 57
-102 30 46 44 231 22 304 l-19 69 205 193 c187 176 209 191 245 168 22 -14
107 -59 188 -100 l147 -74 -137 -126 c-535 -490 -398 -1318 279 -1684 262
-143 651 -267 837 -267 83 0 110 -24 66 -60 -34 -28 -150 -225 -150 -254 0
-11 33 -43 74 -72 l73 -53 59 102 c90 159 198 301 214 283 8 -9 250 -280 537
-602 287 -322 527 -586 534 -587 15 -2 1229 982 1229 996 0 5 -106 187 -235
403 -129 217 -238 401 -242 409 -14 32 276 -8 379 -53 30 -13 78 102 78 183 0
21 -222 65 -327 65 -86 0 -85 -2 -29 140 36 92 44 152 45 360 l1 250 -89 159
c-54 98 -138 207 -216 284 l-128 125 86 44 c48 24 135 74 193 111 l106 68 219
-205 c181 -170 216 -213 204 -246 -8 -22 -15 -85 -14 -140 1 -220 69 -285 91
-86 23 206 144 316 349 316 127 1 172 25 128 70 -31 30 -273 47 -392 27 -32
-5 -92 40 -235 180 l-192 188 112 109 c344 339 462 828 327 1359 -120 474
-459 700 -1179 788 -179 22 -1904 43 -2130 27z m2251 -167 c712 -124 971 -411
968 -1071 -3 -573 -309 -965 -996 -1276 -142 -65 -147 -48 97 -299 286 -293
365 -594 246 -935 l-46 -130 -100 6 c-666 42 -1291 -169 -1666 -565 l-142
-149 -196 29 c-1209 179 -1701 1237 -855 1840 107 77 165 141 144 160 -3 3
-59 27 -125 55 -646 271 -989 716 -990 1285 -1 545 222 839 734 970 498 127
2363 178 2927 80z m235 -4126 c43 -91 129 -250 191 -354 129 -216 133 -236 58
-303 -142 -127 -830 -678 -845 -678 -33 0 -960 1014 -960 1051 0 21 122 117
245 194 272 167 597 247 1029 252 l204 3 78 -165z"/>
<path d="M3004 5449 c-176 -124 -119 -415 87 -442 269 -36 401 287 178 434
-72 47 -203 51 -265 8z"/>
<path d="M3015 4529 c-119 -65 -157 -278 -67 -375 131 -142 387 -64 431 131
42 186 -187 339 -364 244z"/>
<path d="M2837 3343 c-242 -80 -421 -223 -368 -295 25 -34 33 -33 144 35 310
190 648 191 912 4 173 -122 264 -80 133 63 -187 202 -540 286 -821 193z"/>
<path d="M2406 2741 c-170 -104 -163 -360 12 -450 169 -87 382 31 382 213 0
219 -213 347 -394 237z"/>
<path d="M3526 2742 c-170 -107 -163 -361 12 -451 220 -114 447 101 361 341
-46 129 -248 189 -373 110z"/>
<path d="M153 4577 c-247 -143 -183 -437 96 -437 250 0 341 263 138 398 -97
64 -170 76 -234 39z m203 -191 c10 -101 -25 -146 -113 -146 -87 0 -123 28
-123 97 0 134 224 180 236 49z"/>
<path d="M402 2289 c-200 -169 -36 -468 216 -392 44 13 92 46 112 76 147 224
-125 486 -328 316z m259 -122 c44 -116 -69 -215 -181 -157 -59 30 -88 155 -47
197 42 41 208 12 228 -40z"/>
<path d="M5609 2273 c-202 -202 9 -478 279 -365 76 32 111 112 105 236 -10
189 -245 268 -384 129z m267 -147 c11 -150 -204 -190 -242 -45 -26 98 16 142
131 135 l105 -6 6 -84z"/>
<path d="M1553 1220 c-123 -108 -112 -250 28 -368 223 -188 518 153 311 360
-95 95 -236 98 -339 8z m275 -92 c62 -162 -76 -300 -188 -188 -45 45 -54 158
-16 196 37 37 189 31 204 -8z"/>
<path d="M5546 670 c-183 -128 -82 -430 145 -430 209 0 295 213 159 392 -59
78 -219 98 -304 38z m210 -101 c59 -42 63 -178 5 -208 -108 -58 -201 -13 -201
98 1 129 94 181 196 110z"/>
<path d="M2060 563 c-190 -190 37 -499 276 -375 131 68 155 176 72 335 -58
113 -253 136 -348 40z m249 -74 c53 -54 41 -185 -20 -213 -121 -55 -217 76
-149 203 26 50 123 55 169 10z"/>
</g>
</svg>
